<?xml version="1.0" standalone="no"?>
<!DOCTYPE svg PUBLIC "-//W3C//DTD SVG 20010904//EN"
 "http://www.w3.org/TR/2001/REC-SVG-20010904/DTD/svg10.dtd">
<svg version="1.0" xmlns="http://www.w3.org/2000/svg"
 width="345.000000pt" height="130.000000pt" viewBox="0 0 345.000000 130.000000"
 preserveAspectRatio="xMidYMid meet">

<g transform="translate(0.000000,130.000000) scale(0.100000,-0.100000)"
fill="#000000" stroke="none">
<path d="M1540 1073 l0 -190 83 -75 c45 -41 88 -78 95 -82 8 -5 44 22 102 75
l90 82 0 189 0 189 -92 -80 -91 -80 -32 27 c-18 15 -60 51 -94 80 l-61 54 0
-189z"/>
<path d="M1328 965 l-3 -130 -129 -5 -129 -5 106 -97 105 -98 126 0 126 0 0
128 0 127 -99 105 -100 105 -3 -130z"/>
<path d="M2018 987 l-98 -105 0 -126 0 -126 128 0 128 0 107 100 107 100 -130
0 -130 0 -1 83 c0 45 -4 104 -7 131 l-7 48 -97 -105z"/>
<path d="M572 538 c-15 -15 3 -48 27 -48 24 0 45 25 37 45 -6 18 -47 20 -64 3z"/>
<path d="M667 544 c-14 -14 -7 -43 12 -49 29 -9 52 5 49 29 -3 21 -46 35 -61
20z"/>
<path d="M1537 543 c-14 -14 -6 -42 14 -48 26 -8 54 16 46 39 -6 16 -48 22
-60 9z"/>
<path d="M1627 544 c-14 -14 -7 -43 12 -49 29 -9 52 5 49 29 -3 21 -46 35 -61
20z"/>
<path d="M151 459 c-24 -5 -54 -16 -68 -24 -32 -21 -63 -73 -63 -106 0 -39 40
-91 90 -116 39 -20 60 -23 167 -23 l123 0 0 85 0 85 -93 0 c-91 0 -94 -1 -122
-30 l-29 -30 77 0 c72 0 77 -1 77 -21 0 -20 -4 -21 -81 -17 -70 3 -83 6 -100
27 -24 30 -24 42 2 75 20 25 24 26 119 26 l98 0 31 35 c17 20 31 37 31 40 0 7
-214 2 -259 -6z"/>
<path d="M454 455 c-3 -8 -4 -53 -3 -99 5 -99 23 -133 85 -154 57 -20 180 -18
232 3 60 24 72 53 72 170 l0 95 -45 0 -45 0 0 -89 c0 -115 -6 -121 -105 -121
-99 0 -105 6 -105 121 l0 89 -40 0 c-27 0 -43 -5 -46 -15z"/>
<path d="M948 453 c-12 -15 -88 -236 -88 -257 0 -3 20 -6 44 -6 l43 0 18 67
c27 104 27 104 78 15 69 -120 105 -118 174 8 21 38 41 70 44 70 4 0 10 -12 13
-27 4 -16 14 -52 22 -80 l15 -53 45 0 c35 0 45 3 41 13 -3 8 -19 61 -37 118
-38 124 -52 149 -85 149 -26 0 -53 -31 -110 -128 -16 -29 -32 -52 -35 -52 -3
0 -21 26 -39 58 -55 93 -80 122 -105 122 -13 0 -30 -8 -38 -17z"/>
<path d="M1420 367 c0 -54 5 -107 10 -118 40 -73 268 -86 340 -19 30 28 30 29
30 132 l0 103 -42 -1 -43 -1 -3 -91 c-2 -64 -7 -94 -17 -102 -20 -16 -150 -17
-169 -1 -11 9 -16 38 -18 103 l-3 91 -43 1 -42 1 0 -98z"/>
<path d="M1925 458 c-46 -9 -75 -39 -75 -75 0 -66 40 -83 192 -83 99 0 109 -2
106 -17 -3 -16 -19 -18 -128 -21 l-125 -4 -29 -35 -29 -34 176 3 c170 3 176 4
201 27 29 28 35 75 12 106 -12 16 -32 20 -137 26 -68 4 -130 8 -136 8 -7 1
-13 8 -13 16 0 12 19 15 113 15 l113 0 32 33 c18 18 32 36 32 40 0 10 -255 6
-305 -5z"/>
<path d="M2287 463 c-4 -3 -7 -66 -7 -140 l0 -133 134 0 134 0 26 35 27 35
-115 0 -116 0 0 105 0 105 -38 0 c-21 0 -42 -3 -45 -7z"/>
<path d="M2640 330 l0 -140 138 0 138 0 27 28 c15 15 27 31 27 35 0 4 -54 7
-120 7 -113 0 -120 1 -120 20 0 18 7 20 88 20 85 0 89 1 117 30 l29 30 -117 0
c-97 0 -117 3 -117 15 0 12 17 15 94 15 l94 0 26 34 c14 19 26 37 26 40 0 3
-74 6 -165 6 l-165 0 0 -140z"/>
<path d="M3046 437 c-15 -19 -26 -37 -26 -40 0 -4 65 -7 145 -7 126 0 146 -2
152 -16 13 -35 -23 -44 -169 -44 l-138 0 0 -70 0 -70 45 0 c45 0 45 0 45 35
l0 35 75 0 c73 0 75 -1 102 -35 26 -33 31 -35 88 -35 l59 0 -43 44 -43 44 30
16 c33 17 42 34 42 77 0 68 -77 99 -245 99 l-94 0 -25 -33z"/>
<path d="M2010 130 c0 -64 21 -67 44 -7 21 56 21 57 -14 57 -29 0 -30 -1 -30
-50z"/>
</g>
</svg>
